<mxfile host="app.diagrams.net" agent="Mozilla/5.0 (Windows NT 10.0; Win64; x64) AppleWebKit/537.36 (KHTML, like Gecko) Chrome/138.0.0.0 Safari/537.36" version="28.1.1" pages="3">
  <diagram name="PÃ¡gina-1" id="K2zmLa8b1TfUrX6cofTv">
    <mxGraphModel dx="2073" dy="1833" grid="1" gridSize="10" guides="1" tooltips="1" connect="1" arrows="1" fold="1" page="1" pageScale="1" pageWidth="827" pageHeight="1169" math="0" shadow="0">
      <root>
        <mxCell id="0" />
        <mxCell id="1" parent="0" />
        <mxCell id="IhZcXb-aFPSrtWPQYi8L-1" value="" style="rounded=0;whiteSpace=wrap;html=1;" vertex="1" parent="1">
          <mxGeometry x="69" y="30" width="690" height="480" as="geometry" />
        </mxCell>
        <mxCell id="IhZcXb-aFPSrtWPQYi8L-2" value="administrador" style="shape=umlActor;verticalLabelPosition=bottom;verticalAlign=top;html=1;outlineConnect=0;" vertex="1" parent="1">
          <mxGeometry x="-10" y="220" width="30" height="60" as="geometry" />
        </mxCell>
        <mxCell id="IhZcXb-aFPSrtWPQYi8L-3" value="empleado" style="shape=umlActor;verticalLabelPosition=bottom;verticalAlign=top;html=1;outlineConnect=0;" vertex="1" parent="1">
          <mxGeometry x="810" y="210" width="30" height="60" as="geometry" />
        </mxCell>
        <mxCell id="IhZcXb-aFPSrtWPQYi8L-4" value="actualizar stock" style="ellipse;whiteSpace=wrap;html=1;" vertex="1" parent="1">
          <mxGeometry x="379" y="50" width="70" height="60" as="geometry" />
        </mxCell>
        <mxCell id="IhZcXb-aFPSrtWPQYi8L-5" value="historial" style="ellipse;whiteSpace=wrap;html=1;" vertex="1" parent="1">
          <mxGeometry x="670" y="60" width="60" height="40" as="geometry" />
        </mxCell>
        <mxCell id="IhZcXb-aFPSrtWPQYi8L-7" value="alerta de stock bajo" style="ellipse;whiteSpace=wrap;html=1;" vertex="1" parent="1">
          <mxGeometry x="630" y="430" width="71" height="50" as="geometry" />
        </mxCell>
        <mxCell id="IhZcXb-aFPSrtWPQYi8L-8" value="producto nuevo" style="ellipse;whiteSpace=wrap;html=1;" vertex="1" parent="1">
          <mxGeometry x="370" y="225" width="70" height="50" as="geometry" />
        </mxCell>
        <mxCell id="IhZcXb-aFPSrtWPQYi8L-11" value="numero de stock" style="ellipse;whiteSpace=wrap;html=1;" vertex="1" parent="1">
          <mxGeometry x="370" y="390" width="70" height="50" as="geometry" />
        </mxCell>
        <mxCell id="IhZcXb-aFPSrtWPQYi8L-12" value="inventario" style="text;html=1;align=center;verticalAlign=middle;resizable=0;points=[];autosize=1;strokeColor=none;fillColor=none;" vertex="1" parent="1">
          <mxGeometry x="360" y="-50" width="80" height="30" as="geometry" />
        </mxCell>
        <mxCell id="IhZcXb-aFPSrtWPQYi8L-14" value="" style="endArrow=none;html=1;rounded=0;entryX=0.014;entryY=0.617;entryDx=0;entryDy=0;entryPerimeter=0;" edge="1" parent="1" source="IhZcXb-aFPSrtWPQYi8L-28" target="IhZcXb-aFPSrtWPQYi8L-4">
          <mxGeometry width="50" height="50" relative="1" as="geometry">
            <mxPoint x="360" y="260" as="sourcePoint" />
            <mxPoint x="410" y="210" as="targetPoint" />
          </mxGeometry>
        </mxCell>
        <mxCell id="IhZcXb-aFPSrtWPQYi8L-15" value="" style="endArrow=none;html=1;rounded=0;exitX=1;exitY=0.5;exitDx=0;exitDy=0;" edge="1" parent="1" source="IhZcXb-aFPSrtWPQYi8L-29" target="IhZcXb-aFPSrtWPQYi8L-3">
          <mxGeometry width="50" height="50" relative="1" as="geometry">
            <mxPoint x="360" y="247" as="sourcePoint" />
            <mxPoint x="706" y="110" as="targetPoint" />
          </mxGeometry>
        </mxCell>
        <mxCell id="IhZcXb-aFPSrtWPQYi8L-16" value="" style="endArrow=none;html=1;rounded=0;exitX=1;exitY=0.5;exitDx=0;exitDy=0;" edge="1" parent="1" source="IhZcXb-aFPSrtWPQYi8L-30" target="IhZcXb-aFPSrtWPQYi8L-3">
          <mxGeometry width="50" height="50" relative="1" as="geometry">
            <mxPoint x="435" y="190" as="sourcePoint" />
            <mxPoint x="810" y="325" as="targetPoint" />
          </mxGeometry>
        </mxCell>
        <mxCell id="IhZcXb-aFPSrtWPQYi8L-17" value="" style="endArrow=none;html=1;rounded=0;exitX=1;exitY=0.5;exitDx=0;exitDy=0;" edge="1" parent="1" source="IhZcXb-aFPSrtWPQYi8L-27" target="IhZcXb-aFPSrtWPQYi8L-3">
          <mxGeometry width="50" height="50" relative="1" as="geometry">
            <mxPoint x="580" y="300" as="sourcePoint" />
            <mxPoint x="955" y="353" as="targetPoint" />
          </mxGeometry>
        </mxCell>
        <mxCell id="IhZcXb-aFPSrtWPQYi8L-18" value="" style="endArrow=none;html=1;rounded=0;entryX=0;entryY=0.5;entryDx=0;entryDy=0;" edge="1" parent="1" source="IhZcXb-aFPSrtWPQYi8L-26" target="IhZcXb-aFPSrtWPQYi8L-11">
          <mxGeometry width="50" height="50" relative="1" as="geometry">
            <mxPoint x="20" y="250" as="sourcePoint" />
            <mxPoint x="616" y="140" as="targetPoint" />
          </mxGeometry>
        </mxCell>
        <mxCell id="IhZcXb-aFPSrtWPQYi8L-19" value="" style="endArrow=none;html=1;rounded=0;entryX=0.071;entryY=0.64;entryDx=0;entryDy=0;entryPerimeter=0;" edge="1" parent="1" source="IhZcXb-aFPSrtWPQYi8L-23" target="IhZcXb-aFPSrtWPQYi8L-8">
          <mxGeometry width="50" height="50" relative="1" as="geometry">
            <mxPoint x="24" y="297" as="sourcePoint" />
            <mxPoint x="370" y="160" as="targetPoint" />
          </mxGeometry>
        </mxCell>
        <mxCell id="IhZcXb-aFPSrtWPQYi8L-20" value="" style="endArrow=none;html=1;rounded=0;exitX=1;exitY=0.5;exitDx=0;exitDy=0;" edge="1" parent="1" source="IhZcXb-aFPSrtWPQYi8L-25" target="IhZcXb-aFPSrtWPQYi8L-5">
          <mxGeometry width="50" height="50" relative="1" as="geometry">
            <mxPoint x="160" y="336" as="sourcePoint" />
            <mxPoint x="520" y="180" as="targetPoint" />
          </mxGeometry>
        </mxCell>
        <mxCell id="IhZcXb-aFPSrtWPQYi8L-22" value="" style="endArrow=none;html=1;rounded=0;entryX=0;entryY=0.5;entryDx=0;entryDy=0;exitX=1;exitY=0.5;exitDx=0;exitDy=0;" edge="1" parent="1" source="IhZcXb-aFPSrtWPQYi8L-24" target="IhZcXb-aFPSrtWPQYi8L-7">
          <mxGeometry width="50" height="50" relative="1" as="geometry">
            <mxPoint x="340" y="360" as="sourcePoint" />
            <mxPoint x="390" y="310" as="targetPoint" />
          </mxGeometry>
        </mxCell>
        <mxCell id="IhZcXb-aFPSrtWPQYi8L-31" value="" style="endArrow=none;html=1;rounded=0;exitX=1;exitY=0.5;exitDx=0;exitDy=0;" edge="1" parent="1" source="IhZcXb-aFPSrtWPQYi8L-11" target="IhZcXb-aFPSrtWPQYi8L-27">
          <mxGeometry width="50" height="50" relative="1" as="geometry">
            <mxPoint x="440" y="415" as="sourcePoint" />
            <mxPoint x="810" y="247" as="targetPoint" />
          </mxGeometry>
        </mxCell>
        <mxCell id="IhZcXb-aFPSrtWPQYi8L-27" value="include" style="text;html=1;align=center;verticalAlign=middle;resizable=0;points=[];autosize=1;strokeColor=none;fillColor=none;" vertex="1" parent="1">
          <mxGeometry x="580" y="320" width="60" height="30" as="geometry" />
        </mxCell>
        <mxCell id="IhZcXb-aFPSrtWPQYi8L-32" value="" style="endArrow=none;html=1;rounded=0;entryX=0;entryY=0.5;entryDx=0;entryDy=0;" edge="1" parent="1" target="IhZcXb-aFPSrtWPQYi8L-26">
          <mxGeometry width="50" height="50" relative="1" as="geometry">
            <mxPoint x="20" y="250" as="sourcePoint" />
            <mxPoint x="370" y="415" as="targetPoint" />
          </mxGeometry>
        </mxCell>
        <mxCell id="IhZcXb-aFPSrtWPQYi8L-26" value="include" style="text;html=1;align=center;verticalAlign=middle;resizable=0;points=[];autosize=1;strokeColor=none;fillColor=none;" vertex="1" parent="1">
          <mxGeometry x="160" y="320" width="60" height="30" as="geometry" />
        </mxCell>
        <mxCell id="IhZcXb-aFPSrtWPQYi8L-33" value="" style="endArrow=none;html=1;rounded=0;entryX=0.071;entryY=0.64;entryDx=0;entryDy=0;entryPerimeter=0;" edge="1" parent="1" source="IhZcXb-aFPSrtWPQYi8L-2" target="IhZcXb-aFPSrtWPQYi8L-23">
          <mxGeometry width="50" height="50" relative="1" as="geometry">
            <mxPoint x="20" y="250" as="sourcePoint" />
            <mxPoint x="375" y="257" as="targetPoint" />
          </mxGeometry>
        </mxCell>
        <mxCell id="IhZcXb-aFPSrtWPQYi8L-23" value="include" style="text;html=1;align=center;verticalAlign=middle;resizable=0;points=[];autosize=1;strokeColor=none;fillColor=none;" vertex="1" parent="1">
          <mxGeometry x="190" y="235" width="60" height="30" as="geometry" />
        </mxCell>
        <mxCell id="IhZcXb-aFPSrtWPQYi8L-34" value="" style="endArrow=none;html=1;rounded=0;exitX=1;exitY=0.5;exitDx=0;exitDy=0;" edge="1" parent="1" source="IhZcXb-aFPSrtWPQYi8L-8" target="IhZcXb-aFPSrtWPQYi8L-30">
          <mxGeometry width="50" height="50" relative="1" as="geometry">
            <mxPoint x="440" y="250" as="sourcePoint" />
            <mxPoint x="810" y="240" as="targetPoint" />
          </mxGeometry>
        </mxCell>
        <mxCell id="IhZcXb-aFPSrtWPQYi8L-30" value="include" style="text;html=1;align=center;verticalAlign=middle;resizable=0;points=[];autosize=1;strokeColor=none;fillColor=none;" vertex="1" parent="1">
          <mxGeometry x="570" y="235" width="60" height="30" as="geometry" />
        </mxCell>
        <mxCell id="IhZcXb-aFPSrtWPQYi8L-35" value="" style="endArrow=none;html=1;rounded=0;exitX=1;exitY=0.5;exitDx=0;exitDy=0;" edge="1" parent="1" source="IhZcXb-aFPSrtWPQYi8L-4" target="IhZcXb-aFPSrtWPQYi8L-29">
          <mxGeometry width="50" height="50" relative="1" as="geometry">
            <mxPoint x="449" y="80" as="sourcePoint" />
            <mxPoint x="810" y="234" as="targetPoint" />
          </mxGeometry>
        </mxCell>
        <mxCell id="IhZcXb-aFPSrtWPQYi8L-29" value="include" style="text;html=1;align=center;verticalAlign=middle;resizable=0;points=[];autosize=1;strokeColor=none;fillColor=none;" vertex="1" parent="1">
          <mxGeometry x="590" y="140" width="60" height="30" as="geometry" />
        </mxCell>
        <mxCell id="IhZcXb-aFPSrtWPQYi8L-36" value="" style="endArrow=none;html=1;rounded=0;entryX=0.014;entryY=0.617;entryDx=0;entryDy=0;entryPerimeter=0;" edge="1" parent="1" source="IhZcXb-aFPSrtWPQYi8L-2" target="IhZcXb-aFPSrtWPQYi8L-28">
          <mxGeometry width="50" height="50" relative="1" as="geometry">
            <mxPoint x="20" y="243" as="sourcePoint" />
            <mxPoint x="380" y="87" as="targetPoint" />
          </mxGeometry>
        </mxCell>
        <mxCell id="IhZcXb-aFPSrtWPQYi8L-28" value="include" style="text;html=1;align=center;verticalAlign=middle;resizable=0;points=[];autosize=1;strokeColor=none;fillColor=none;" vertex="1" parent="1">
          <mxGeometry x="200" y="130" width="60" height="30" as="geometry" />
        </mxCell>
        <mxCell id="IhZcXb-aFPSrtWPQYi8L-37" value="" style="endArrow=none;html=1;rounded=0;exitX=1;exitY=0.5;exitDx=0;exitDy=0;" edge="1" parent="1" source="IhZcXb-aFPSrtWPQYi8L-4" target="IhZcXb-aFPSrtWPQYi8L-25">
          <mxGeometry width="50" height="50" relative="1" as="geometry">
            <mxPoint x="449" y="80" as="sourcePoint" />
            <mxPoint x="590" y="80" as="targetPoint" />
          </mxGeometry>
        </mxCell>
        <mxCell id="IhZcXb-aFPSrtWPQYi8L-25" value="exc&lt;span style=&quot;color: rgba(0, 0, 0, 0); font-family: monospace; font-size: 0px; text-align: start;&quot;&gt;%3CmxGraphModel%3E%3Croot%3E%3CmxCell%20id%3D%220%22%2F%3E%3CmxCell%20id%3D%221%22%20parent%3D%220%22%2F%3E%3CmxCell%20id%3D%222%22%20value%3D%22%22%20style%3D%22endArrow%3Dnone%3Bhtml%3D1%3Brounded%3D0%3BentryX%3D0.014%3BentryY%3D0.617%3BentryDx%3D0%3BentryDy%3D0%3BentryPerimeter%3D0%3B%22%20edge%3D%221%22%20parent%3D%221%22%3E%3CmxGeometry%20width%3D%2250%22%20height%3D%2250%22%20relative%3D%221%22%20as%3D%22geometry%22%3E%3CmxPoint%20x%3D%2220%22%20y%3D%22243%22%20as%3D%22sourcePoint%22%2F%3E%3CmxPoint%20x%3D%22380%22%20y%3D%2287%22%20as%3D%22targetPoint%22%2F%3E%3C%2FmxGeometry%3E%3C%2FmxCell%3E%3C%2Froot%3E%3C%2FmxGraphModel%3E&lt;/span&gt;lude" style="text;html=1;align=center;verticalAlign=middle;resizable=0;points=[];autosize=1;strokeColor=none;fillColor=none;" vertex="1" parent="1">
          <mxGeometry x="540" y="65" width="60" height="30" as="geometry" />
        </mxCell>
        <mxCell id="IhZcXb-aFPSrtWPQYi8L-38" value="" style="endArrow=none;html=1;rounded=0;entryX=0;entryY=0.5;entryDx=0;entryDy=0;exitX=1;exitY=0.5;exitDx=0;exitDy=0;" edge="1" parent="1" source="IhZcXb-aFPSrtWPQYi8L-11" target="IhZcXb-aFPSrtWPQYi8L-24">
          <mxGeometry width="50" height="50" relative="1" as="geometry">
            <mxPoint x="440" y="415" as="sourcePoint" />
            <mxPoint x="550" y="435" as="targetPoint" />
          </mxGeometry>
        </mxCell>
        <mxCell id="IhZcXb-aFPSrtWPQYi8L-24" value="exc&lt;span style=&quot;color: rgba(0, 0, 0, 0); font-family: monospace; font-size: 0px; text-align: start;&quot;&gt;%3CmxGraphModel%3E%3Croot%3E%3CmxCell%20id%3D%220%22%2F%3E%3CmxCell%20id%3D%221%22%20parent%3D%220%22%2F%3E%3CmxCell%20id%3D%222%22%20value%3D%22%22%20style%3D%22endArrow%3Dnone%3Bhtml%3D1%3Brounded%3D0%3BentryX%3D0.014%3BentryY%3D0.617%3BentryDx%3D0%3BentryDy%3D0%3BentryPerimeter%3D0%3B%22%20edge%3D%221%22%20parent%3D%221%22%3E%3CmxGeometry%20width%3D%2250%22%20height%3D%2250%22%20relative%3D%221%22%20as%3D%22geometry%22%3E%3CmxPoint%20x%3D%2220%22%20y%3D%22243%22%20as%3D%22sourcePoint%22%2F%3E%3CmxPoint%20x%3D%22380%22%20y%3D%2287%22%20as%3D%22targetPoint%22%2F%3E%3C%2FmxGeometry%3E%3C%2FmxCell%3E%3C%2Froot%3E%3C%2FmxGraphModel%3E&lt;/span&gt;lude" style="text;html=1;align=center;verticalAlign=middle;resizable=0;points=[];autosize=1;strokeColor=none;fillColor=none;" vertex="1" parent="1">
          <mxGeometry x="490" y="430" width="60" height="30" as="geometry" />
        </mxCell>
      </root>
    </mxGraphModel>
  </diagram>
  <diagram id="rwavxIDP2V7Wqlw7T7H5" name="PÃ¡gina-2">
    <mxGraphModel dx="1585" dy="845" grid="1" gridSize="10" guides="1" tooltips="1" connect="1" arrows="1" fold="1" page="1" pageScale="1" pageWidth="827" pageHeight="1169" math="0" shadow="0">
      <root>
        <mxCell id="0" />
        <mxCell id="1" parent="0" />
        <mxCell id="ZokC7jPuqegJXK2MM_wK-1" value="" style="rounded=0;whiteSpace=wrap;html=1;" vertex="1" parent="1">
          <mxGeometry x="570" y="380" width="690" height="480" as="geometry" />
        </mxCell>
        <mxCell id="ZokC7jPuqegJXK2MM_wK-2" value="cliente" style="shape=umlActor;verticalLabelPosition=bottom;verticalAlign=top;html=1;outlineConnect=0;" vertex="1" parent="1">
          <mxGeometry x="1320" y="610" width="30" height="60" as="geometry" />
        </mxCell>
        <mxCell id="ZokC7jPuqegJXK2MM_wK-3" value="pago" style="shape=umlActor;verticalLabelPosition=bottom;verticalAlign=top;html=1;outlineConnect=0;" vertex="1" parent="1">
          <mxGeometry x="430" y="460" width="30" height="60" as="geometry" />
        </mxCell>
        <mxCell id="ZokC7jPuqegJXK2MM_wK-9" value="banco&lt;div&gt;&lt;br&gt;&lt;/div&gt;" style="text;html=1;align=center;verticalAlign=middle;resizable=0;points=[];autosize=1;strokeColor=none;fillColor=none;" vertex="1" parent="1">
          <mxGeometry x="840" y="235" width="60" height="40" as="geometry" />
        </mxCell>
        <mxCell id="ZokC7jPuqegJXK2MM_wK-34" value="sistema banco&lt;div&gt;&lt;br&gt;&lt;/div&gt;" style="shape=umlActor;verticalLabelPosition=bottom;verticalAlign=top;html=1;outlineConnect=0;" vertex="1" parent="1">
          <mxGeometry x="400" y="720" width="30" height="60" as="geometry" />
        </mxCell>
        <mxCell id="ZokC7jPuqegJXK2MM_wK-37" value="inicio pago" style="ellipse;whiteSpace=wrap;html=1;" vertex="1" parent="1">
          <mxGeometry x="1160" y="480" width="70" height="50" as="geometry" />
        </mxCell>
        <mxCell id="ZokC7jPuqegJXK2MM_wK-38" value="comprovante" style="ellipse;whiteSpace=wrap;html=1;" vertex="1" parent="1">
          <mxGeometry x="1100" y="710" width="70" height="50" as="geometry" />
        </mxCell>
        <mxCell id="ZokC7jPuqegJXK2MM_wK-39" value="" style="ellipse;whiteSpace=wrap;html=1;" vertex="1" parent="1">
          <mxGeometry x="670" y="780" width="70" height="50" as="geometry" />
        </mxCell>
        <mxCell id="ZokC7jPuqegJXK2MM_wK-40" value="confirmar transaccion" style="ellipse;whiteSpace=wrap;html=1;" vertex="1" parent="1">
          <mxGeometry x="1025" y="600" width="70" height="50" as="geometry" />
        </mxCell>
        <mxCell id="ZokC7jPuqegJXK2MM_wK-41" value="tarjeta" style="ellipse;whiteSpace=wrap;html=1;" vertex="1" parent="1">
          <mxGeometry x="750" y="550" width="70" height="50" as="geometry" />
        </mxCell>
        <mxCell id="ZokC7jPuqegJXK2MM_wK-42" value="billetera onine" style="ellipse;whiteSpace=wrap;html=1;" vertex="1" parent="1">
          <mxGeometry x="740" y="420" width="70" height="50" as="geometry" />
        </mxCell>
        <mxCell id="ZokC7jPuqegJXK2MM_wK-43" value="transferencia" style="ellipse;whiteSpace=wrap;html=1;" vertex="1" parent="1">
          <mxGeometry x="790" y="690" width="70" height="50" as="geometry" />
        </mxCell>
        <mxCell id="ZokC7jPuqegJXK2MM_wK-44" value="" style="endArrow=none;html=1;rounded=0;exitX=1;exitY=0.5;exitDx=0;exitDy=0;" edge="1" parent="1" source="ZokC7jPuqegJXK2MM_wK-50" target="ZokC7jPuqegJXK2MM_wK-2">
          <mxGeometry width="50" height="50" relative="1" as="geometry">
            <mxPoint x="1020" y="740" as="sourcePoint" />
            <mxPoint x="1070" y="690" as="targetPoint" />
          </mxGeometry>
        </mxCell>
        <mxCell id="ZokC7jPuqegJXK2MM_wK-45" value="" style="endArrow=none;html=1;rounded=0;exitX=1;exitY=0.5;exitDx=0;exitDy=0;" edge="1" parent="1" source="ZokC7jPuqegJXK2MM_wK-48" target="ZokC7jPuqegJXK2MM_wK-2">
          <mxGeometry width="50" height="50" relative="1" as="geometry">
            <mxPoint x="1130" y="779" as="sourcePoint" />
            <mxPoint x="1290" y="720" as="targetPoint" />
          </mxGeometry>
        </mxCell>
        <mxCell id="ZokC7jPuqegJXK2MM_wK-49" value="" style="endArrow=none;html=1;rounded=0;exitX=1;exitY=0.5;exitDx=0;exitDy=0;" edge="1" parent="1" source="ZokC7jPuqegJXK2MM_wK-37" target="ZokC7jPuqegJXK2MM_wK-48">
          <mxGeometry width="50" height="50" relative="1" as="geometry">
            <mxPoint x="1170" y="625" as="sourcePoint" />
            <mxPoint x="1320" y="639" as="targetPoint" />
          </mxGeometry>
        </mxCell>
        <mxCell id="ZokC7jPuqegJXK2MM_wK-48" value="include" style="text;html=1;align=center;verticalAlign=middle;resizable=0;points=[];autosize=1;strokeColor=none;fillColor=none;" vertex="1" parent="1">
          <mxGeometry x="1181" y="620" width="60" height="30" as="geometry" />
        </mxCell>
        <mxCell id="ZokC7jPuqegJXK2MM_wK-51" value="" style="endArrow=none;html=1;rounded=0;exitX=1;exitY=0.5;exitDx=0;exitDy=0;" edge="1" parent="1" source="ZokC7jPuqegJXK2MM_wK-38" target="ZokC7jPuqegJXK2MM_wK-50">
          <mxGeometry width="50" height="50" relative="1" as="geometry">
            <mxPoint x="1160" y="705" as="sourcePoint" />
            <mxPoint x="1320" y="646" as="targetPoint" />
          </mxGeometry>
        </mxCell>
        <mxCell id="ZokC7jPuqegJXK2MM_wK-50" value="include" style="text;html=1;align=center;verticalAlign=middle;resizable=0;points=[];autosize=1;strokeColor=none;fillColor=none;" vertex="1" parent="1">
          <mxGeometry x="1200" y="680" width="60" height="30" as="geometry" />
        </mxCell>
        <mxCell id="ZokC7jPuqegJXK2MM_wK-52" value="metodo pago" style="ellipse;whiteSpace=wrap;html=1;" vertex="1" parent="1">
          <mxGeometry x="970" y="480" width="70" height="50" as="geometry" />
        </mxCell>
        <mxCell id="ZokC7jPuqegJXK2MM_wK-53" value="" style="endArrow=none;html=1;rounded=0;exitX=0.983;exitY=0.608;exitDx=0;exitDy=0;exitPerimeter=0;entryX=0;entryY=0.5;entryDx=0;entryDy=0;" edge="1" parent="1" source="cnJOetgvGO6HsMZTgjHF-1" target="ZokC7jPuqegJXK2MM_wK-52">
          <mxGeometry width="50" height="50" relative="1" as="geometry">
            <mxPoint x="780" y="660" as="sourcePoint" />
            <mxPoint x="830" y="610" as="targetPoint" />
          </mxGeometry>
        </mxCell>
        <mxCell id="ZokC7jPuqegJXK2MM_wK-54" value="" style="endArrow=none;html=1;rounded=0;exitX=1;exitY=0.5;exitDx=0;exitDy=0;entryX=0;entryY=0.5;entryDx=0;entryDy=0;" edge="1" parent="1" source="cnJOetgvGO6HsMZTgjHF-4" target="ZokC7jPuqegJXK2MM_wK-52">
          <mxGeometry width="50" height="50" relative="1" as="geometry">
            <mxPoint x="800" y="680" as="sourcePoint" />
            <mxPoint x="829" y="595" as="targetPoint" />
          </mxGeometry>
        </mxCell>
        <mxCell id="ZokC7jPuqegJXK2MM_wK-55" value="" style="endArrow=none;html=1;rounded=0;exitX=1;exitY=0.5;exitDx=0;exitDy=0;entryX=0;entryY=0.5;entryDx=0;entryDy=0;" edge="1" parent="1" source="cnJOetgvGO6HsMZTgjHF-6" target="ZokC7jPuqegJXK2MM_wK-52">
          <mxGeometry width="50" height="50" relative="1" as="geometry">
            <mxPoint x="850" y="680" as="sourcePoint" />
            <mxPoint x="959" y="786" as="targetPoint" />
          </mxGeometry>
        </mxCell>
        <mxCell id="ZokC7jPuqegJXK2MM_wK-56" value="" style="endArrow=none;html=1;rounded=0;exitX=1;exitY=0.5;exitDx=0;exitDy=0;entryX=0;entryY=0.5;entryDx=0;entryDy=0;" edge="1" parent="1" source="cnJOetgvGO6HsMZTgjHF-11" target="ZokC7jPuqegJXK2MM_wK-37">
          <mxGeometry width="50" height="50" relative="1" as="geometry">
            <mxPoint x="820" y="660" as="sourcePoint" />
            <mxPoint x="1002" y="675" as="targetPoint" />
          </mxGeometry>
        </mxCell>
        <mxCell id="cnJOetgvGO6HsMZTgjHF-3" value="" style="endArrow=none;html=1;rounded=0;exitX=0.983;exitY=0.608;exitDx=0;exitDy=0;exitPerimeter=0;entryX=0;entryY=0.5;entryDx=0;entryDy=0;" edge="1" parent="1" source="ZokC7jPuqegJXK2MM_wK-42" target="cnJOetgvGO6HsMZTgjHF-1">
          <mxGeometry width="50" height="50" relative="1" as="geometry">
            <mxPoint x="679" y="570" as="sourcePoint" />
            <mxPoint x="861" y="585" as="targetPoint" />
          </mxGeometry>
        </mxCell>
        <mxCell id="cnJOetgvGO6HsMZTgjHF-1" value="extend" style="text;html=1;align=center;verticalAlign=middle;resizable=0;points=[];autosize=1;strokeColor=none;fillColor=none;" vertex="1" parent="1">
          <mxGeometry x="870" y="440" width="60" height="30" as="geometry" />
        </mxCell>
        <mxCell id="cnJOetgvGO6HsMZTgjHF-5" value="" style="endArrow=none;html=1;rounded=0;exitX=1;exitY=0.5;exitDx=0;exitDy=0;entryX=0;entryY=0.5;entryDx=0;entryDy=0;" edge="1" parent="1" source="ZokC7jPuqegJXK2MM_wK-43" target="cnJOetgvGO6HsMZTgjHF-4">
          <mxGeometry width="50" height="50" relative="1" as="geometry">
            <mxPoint x="720" y="495" as="sourcePoint" />
            <mxPoint x="861" y="585" as="targetPoint" />
          </mxGeometry>
        </mxCell>
        <mxCell id="cnJOetgvGO6HsMZTgjHF-4" value="extend" style="text;html=1;align=center;verticalAlign=middle;resizable=0;points=[];autosize=1;strokeColor=none;fillColor=none;" vertex="1" parent="1">
          <mxGeometry x="880" y="625" width="60" height="30" as="geometry" />
        </mxCell>
        <mxCell id="cnJOetgvGO6HsMZTgjHF-7" value="" style="endArrow=none;html=1;rounded=0;exitX=1;exitY=0.5;exitDx=0;exitDy=0;entryX=0;entryY=0.5;entryDx=0;entryDy=0;" edge="1" parent="1" source="ZokC7jPuqegJXK2MM_wK-41" target="cnJOetgvGO6HsMZTgjHF-6">
          <mxGeometry width="50" height="50" relative="1" as="geometry">
            <mxPoint x="720" y="435" as="sourcePoint" />
            <mxPoint x="861" y="585" as="targetPoint" />
          </mxGeometry>
        </mxCell>
        <mxCell id="cnJOetgvGO6HsMZTgjHF-6" value="extend" style="text;html=1;align=center;verticalAlign=middle;resizable=0;points=[];autosize=1;strokeColor=none;fillColor=none;" vertex="1" parent="1">
          <mxGeometry x="860" y="520" width="60" height="30" as="geometry" />
        </mxCell>
        <mxCell id="cnJOetgvGO6HsMZTgjHF-8" value="" style="endArrow=none;html=1;rounded=0;entryX=0;entryY=0.5;entryDx=0;entryDy=0;" edge="1" parent="1" source="cnJOetgvGO6HsMZTgjHF-21" target="ZokC7jPuqegJXK2MM_wK-41">
          <mxGeometry width="50" height="50" relative="1" as="geometry">
            <mxPoint x="910" y="650" as="sourcePoint" />
            <mxPoint x="960" y="600" as="targetPoint" />
          </mxGeometry>
        </mxCell>
        <mxCell id="cnJOetgvGO6HsMZTgjHF-9" value="" style="endArrow=none;html=1;rounded=0;" edge="1" parent="1" source="cnJOetgvGO6HsMZTgjHF-22" target="ZokC7jPuqegJXK2MM_wK-43">
          <mxGeometry width="50" height="50" relative="1" as="geometry">
            <mxPoint x="750" y="741" as="sourcePoint" />
            <mxPoint x="940" y="690" as="targetPoint" />
          </mxGeometry>
        </mxCell>
        <mxCell id="cnJOetgvGO6HsMZTgjHF-10" value="" style="endArrow=none;html=1;rounded=0;entryX=0;entryY=0.5;entryDx=0;entryDy=0;" edge="1" parent="1" source="cnJOetgvGO6HsMZTgjHF-19" target="ZokC7jPuqegJXK2MM_wK-42">
          <mxGeometry width="50" height="50" relative="1" as="geometry">
            <mxPoint x="650" y="660" as="sourcePoint" />
            <mxPoint x="860" y="664" as="targetPoint" />
          </mxGeometry>
        </mxCell>
        <mxCell id="cnJOetgvGO6HsMZTgjHF-12" value="" style="endArrow=none;html=1;rounded=0;exitX=1;exitY=0.5;exitDx=0;exitDy=0;entryX=0;entryY=0.5;entryDx=0;entryDy=0;" edge="1" parent="1" source="ZokC7jPuqegJXK2MM_wK-52" target="cnJOetgvGO6HsMZTgjHF-11">
          <mxGeometry width="50" height="50" relative="1" as="geometry">
            <mxPoint x="1000" y="505" as="sourcePoint" />
            <mxPoint x="1110" y="505" as="targetPoint" />
          </mxGeometry>
        </mxCell>
        <mxCell id="cnJOetgvGO6HsMZTgjHF-11" value="include" style="text;html=1;align=center;verticalAlign=middle;resizable=0;points=[];autosize=1;strokeColor=none;fillColor=none;" vertex="1" parent="1">
          <mxGeometry x="1050" y="490" width="60" height="30" as="geometry" />
        </mxCell>
        <mxCell id="cnJOetgvGO6HsMZTgjHF-13" value="" style="endArrow=none;html=1;rounded=0;entryX=0.5;entryY=1;entryDx=0;entryDy=0;exitX=0.5;exitY=0;exitDx=0;exitDy=0;" edge="1" parent="1" source="ZokC7jPuqegJXK2MM_wK-46" target="ZokC7jPuqegJXK2MM_wK-52">
          <mxGeometry width="50" height="50" relative="1" as="geometry">
            <mxPoint x="910" y="700" as="sourcePoint" />
            <mxPoint x="960" y="650" as="targetPoint" />
          </mxGeometry>
        </mxCell>
        <mxCell id="cnJOetgvGO6HsMZTgjHF-14" value="" style="endArrow=none;html=1;rounded=0;entryX=0.5;entryY=1;entryDx=0;entryDy=0;exitX=0.119;exitY=0.353;exitDx=0;exitDy=0;exitPerimeter=0;" edge="1" parent="1" source="cnJOetgvGO6HsMZTgjHF-15" target="ZokC7jPuqegJXK2MM_wK-40">
          <mxGeometry width="50" height="50" relative="1" as="geometry">
            <mxPoint x="910" y="700" as="sourcePoint" />
            <mxPoint x="960" y="650" as="targetPoint" />
          </mxGeometry>
        </mxCell>
        <mxCell id="cnJOetgvGO6HsMZTgjHF-16" value="" style="endArrow=none;html=1;rounded=0;entryX=0.5;entryY=1;entryDx=0;entryDy=0;exitX=0.119;exitY=0.353;exitDx=0;exitDy=0;exitPerimeter=0;" edge="1" parent="1" source="ZokC7jPuqegJXK2MM_wK-38" target="cnJOetgvGO6HsMZTgjHF-15">
          <mxGeometry width="50" height="50" relative="1" as="geometry">
            <mxPoint x="1078" y="723" as="sourcePoint" />
            <mxPoint x="965" y="630" as="targetPoint" />
          </mxGeometry>
        </mxCell>
        <mxCell id="cnJOetgvGO6HsMZTgjHF-15" value="include" style="text;html=1;align=center;verticalAlign=middle;resizable=0;points=[];autosize=1;strokeColor=none;fillColor=none;" vertex="1" parent="1">
          <mxGeometry x="1080" y="660" width="60" height="30" as="geometry" />
        </mxCell>
        <mxCell id="cnJOetgvGO6HsMZTgjHF-17" value="" style="endArrow=none;html=1;rounded=0;entryX=0;entryY=0.5;entryDx=0;entryDy=0;" edge="1" parent="1" source="cnJOetgvGO6HsMZTgjHF-24" target="ZokC7jPuqegJXK2MM_wK-43">
          <mxGeometry width="50" height="50" relative="1" as="geometry">
            <mxPoint x="910" y="700" as="sourcePoint" />
            <mxPoint x="960" y="650" as="targetPoint" />
          </mxGeometry>
        </mxCell>
        <mxCell id="cnJOetgvGO6HsMZTgjHF-18" value="" style="endArrow=none;html=1;rounded=0;entryX=0;entryY=0.5;entryDx=0;entryDy=0;exitX=1;exitY=0.3333333333333333;exitDx=0;exitDy=0;exitPerimeter=0;" edge="1" parent="1" source="cnJOetgvGO6HsMZTgjHF-26" target="ZokC7jPuqegJXK2MM_wK-41">
          <mxGeometry width="50" height="50" relative="1" as="geometry">
            <mxPoint x="450" y="730" as="sourcePoint" />
            <mxPoint x="750" y="770" as="targetPoint" />
          </mxGeometry>
        </mxCell>
        <mxCell id="cnJOetgvGO6HsMZTgjHF-20" value="" style="endArrow=none;html=1;rounded=0;entryX=0;entryY=0.5;entryDx=0;entryDy=0;" edge="1" parent="1" source="ZokC7jPuqegJXK2MM_wK-3" target="cnJOetgvGO6HsMZTgjHF-19">
          <mxGeometry width="50" height="50" relative="1" as="geometry">
            <mxPoint x="460" y="485" as="sourcePoint" />
            <mxPoint x="700" y="405" as="targetPoint" />
          </mxGeometry>
        </mxCell>
        <mxCell id="cnJOetgvGO6HsMZTgjHF-19" value="include" style="text;html=1;align=center;verticalAlign=middle;resizable=0;points=[];autosize=1;strokeColor=none;fillColor=none;" vertex="1" parent="1">
          <mxGeometry x="610" y="430" width="60" height="30" as="geometry" />
        </mxCell>
        <mxCell id="cnJOetgvGO6HsMZTgjHF-23" value="" style="endArrow=none;html=1;rounded=0;" edge="1" parent="1" source="ZokC7jPuqegJXK2MM_wK-3" target="cnJOetgvGO6HsMZTgjHF-22">
          <mxGeometry width="50" height="50" relative="1" as="geometry">
            <mxPoint x="460" y="502" as="sourcePoint" />
            <mxPoint x="722" y="711" as="targetPoint" />
          </mxGeometry>
        </mxCell>
        <mxCell id="cnJOetgvGO6HsMZTgjHF-22" value="include" style="text;html=1;align=center;verticalAlign=middle;resizable=0;points=[];autosize=1;strokeColor=none;fillColor=none;" vertex="1" parent="1">
          <mxGeometry x="630" y="670" width="60" height="30" as="geometry" />
        </mxCell>
        <mxCell id="cnJOetgvGO6HsMZTgjHF-25" value="" style="endArrow=none;html=1;rounded=0;entryX=0;entryY=0.5;entryDx=0;entryDy=0;" edge="1" parent="1" source="ZokC7jPuqegJXK2MM_wK-34" target="cnJOetgvGO6HsMZTgjHF-24">
          <mxGeometry width="50" height="50" relative="1" as="geometry">
            <mxPoint x="430" y="749" as="sourcePoint" />
            <mxPoint x="710" y="730" as="targetPoint" />
          </mxGeometry>
        </mxCell>
        <mxCell id="cnJOetgvGO6HsMZTgjHF-24" value="include" style="text;html=1;align=center;verticalAlign=middle;resizable=0;points=[];autosize=1;strokeColor=none;fillColor=none;" vertex="1" parent="1">
          <mxGeometry x="640" y="730" width="60" height="30" as="geometry" />
        </mxCell>
        <mxCell id="cnJOetgvGO6HsMZTgjHF-27" value="" style="endArrow=none;html=1;rounded=0;entryX=0;entryY=0.5;entryDx=0;entryDy=0;exitX=1;exitY=0.3333333333333333;exitDx=0;exitDy=0;exitPerimeter=0;" edge="1" parent="1" source="ZokC7jPuqegJXK2MM_wK-34" target="cnJOetgvGO6HsMZTgjHF-26">
          <mxGeometry width="50" height="50" relative="1" as="geometry">
            <mxPoint x="430" y="740" as="sourcePoint" />
            <mxPoint x="700" y="585" as="targetPoint" />
          </mxGeometry>
        </mxCell>
        <mxCell id="cnJOetgvGO6HsMZTgjHF-26" value="include" style="text;html=1;align=center;verticalAlign=middle;resizable=0;points=[];autosize=1;strokeColor=none;fillColor=none;" vertex="1" parent="1">
          <mxGeometry x="620" y="585" width="60" height="30" as="geometry" />
        </mxCell>
        <mxCell id="cnJOetgvGO6HsMZTgjHF-28" value="" style="endArrow=none;html=1;rounded=0;entryX=0;entryY=0.5;entryDx=0;entryDy=0;" edge="1" parent="1" source="ZokC7jPuqegJXK2MM_wK-3" target="cnJOetgvGO6HsMZTgjHF-21">
          <mxGeometry width="50" height="50" relative="1" as="geometry">
            <mxPoint x="460" y="494" as="sourcePoint" />
            <mxPoint x="750" y="575" as="targetPoint" />
          </mxGeometry>
        </mxCell>
        <mxCell id="cnJOetgvGO6HsMZTgjHF-21" value="include" style="text;html=1;align=center;verticalAlign=middle;resizable=0;points=[];autosize=1;strokeColor=none;fillColor=none;" vertex="1" parent="1">
          <mxGeometry x="630" y="520" width="60" height="30" as="geometry" />
        </mxCell>
        <mxCell id="cnJOetgvGO6HsMZTgjHF-29" value="" style="endArrow=none;html=1;rounded=0;entryX=0.5;entryY=1;entryDx=0;entryDy=0;exitX=0.5;exitY=0;exitDx=0;exitDy=0;" edge="1" parent="1" source="ZokC7jPuqegJXK2MM_wK-40" target="ZokC7jPuqegJXK2MM_wK-46">
          <mxGeometry width="50" height="50" relative="1" as="geometry">
            <mxPoint x="1060" y="600" as="sourcePoint" />
            <mxPoint x="1005" y="530" as="targetPoint" />
          </mxGeometry>
        </mxCell>
        <mxCell id="ZokC7jPuqegJXK2MM_wK-46" value="include" style="text;html=1;align=center;verticalAlign=middle;resizable=0;points=[];autosize=1;strokeColor=none;fillColor=none;" vertex="1" parent="1">
          <mxGeometry x="1000" y="550" width="60" height="30" as="geometry" />
        </mxCell>
      </root>
    </mxGraphModel>
  </diagram>
  <diagram id="KIa1ZM-8zzw4ZN5GF4xd" name="PÃ¡gina-3">
    <mxGraphModel dx="1090" dy="581" grid="1" gridSize="10" guides="1" tooltips="1" connect="1" arrows="1" fold="1" page="1" pageScale="1" pageWidth="827" pageHeight="1169" math="0" shadow="0">
      <root>
        <mxCell id="0" />
        <mxCell id="1" parent="0" />
        <mxCell id="BPoGgEgJMjrMGvOBhOIr-1" value="" style="rounded=0;whiteSpace=wrap;html=1;" vertex="1" parent="1">
          <mxGeometry x="540" y="485" width="690" height="480" as="geometry" />
        </mxCell>
        <mxCell id="BPoGgEgJMjrMGvOBhOIr-2" value="RRHH" style="shape=umlActor;verticalLabelPosition=bottom;verticalAlign=top;html=1;outlineConnect=0;" vertex="1" parent="1">
          <mxGeometry x="1290" y="715" width="30" height="60" as="geometry" />
        </mxCell>
        <mxCell id="BPoGgEgJMjrMGvOBhOIr-3" value="empleado" style="shape=umlActor;verticalLabelPosition=bottom;verticalAlign=top;html=1;outlineConnect=0;" vertex="1" parent="1">
          <mxGeometry x="400" y="565" width="30" height="60" as="geometry" />
        </mxCell>
        <mxCell id="BPoGgEgJMjrMGvOBhOIr-4" value="&lt;div&gt;RRHH&lt;/div&gt;" style="text;html=1;align=center;verticalAlign=middle;resizable=0;points=[];autosize=1;strokeColor=none;fillColor=none;" vertex="1" parent="1">
          <mxGeometry x="827" y="385" width="60" height="30" as="geometry" />
        </mxCell>
        <mxCell id="BPoGgEgJMjrMGvOBhOIr-5" value="&lt;div&gt;contador&lt;/div&gt;" style="shape=umlActor;verticalLabelPosition=bottom;verticalAlign=top;html=1;outlineConnect=0;" vertex="1" parent="1">
          <mxGeometry x="370" y="825" width="30" height="60" as="geometry" />
        </mxCell>
        <mxCell id="BPoGgEgJMjrMGvOBhOIr-6" value="beneficios" style="ellipse;whiteSpace=wrap;html=1;" vertex="1" parent="1">
          <mxGeometry x="1010" y="750" width="70" height="50" as="geometry" />
        </mxCell>
        <mxCell id="BPoGgEgJMjrMGvOBhOIr-7" value="desempeÃ±o" style="ellipse;whiteSpace=wrap;html=1;" vertex="1" parent="1">
          <mxGeometry x="1020" y="825" width="70" height="50" as="geometry" />
        </mxCell>
        <mxCell id="BPoGgEgJMjrMGvOBhOIr-9" value="registro empleado" style="ellipse;whiteSpace=wrap;html=1;" vertex="1" parent="1">
          <mxGeometry x="1020" y="665" width="70" height="50" as="geometry" />
        </mxCell>
        <mxCell id="BPoGgEgJMjrMGvOBhOIr-10" value="solicitud de vacaciones" style="ellipse;whiteSpace=wrap;html=1;" vertex="1" parent="1">
          <mxGeometry x="710" y="485" width="70" height="50" as="geometry" />
        </mxCell>
        <mxCell id="BPoGgEgJMjrMGvOBhOIr-11" value="informacion" style="ellipse;whiteSpace=wrap;html=1;" vertex="1" parent="1">
          <mxGeometry x="680" y="570" width="70" height="50" as="geometry" />
        </mxCell>
        <mxCell id="BPoGgEgJMjrMGvOBhOIr-12" value="transferencia" style="ellipse;whiteSpace=wrap;html=1;" vertex="1" parent="1">
          <mxGeometry x="690" y="830" width="70" height="50" as="geometry" />
        </mxCell>
        <mxCell id="BPoGgEgJMjrMGvOBhOIr-13" value="" style="endArrow=none;html=1;rounded=0;exitX=1;exitY=0.5;exitDx=0;exitDy=0;" edge="1" parent="1" source="BPoGgEgJMjrMGvOBhOIr-18" target="BPoGgEgJMjrMGvOBhOIr-2">
          <mxGeometry width="50" height="50" relative="1" as="geometry">
            <mxPoint x="990" y="845" as="sourcePoint" />
            <mxPoint x="1040" y="795" as="targetPoint" />
          </mxGeometry>
        </mxCell>
        <mxCell id="BPoGgEgJMjrMGvOBhOIr-14" value="" style="endArrow=none;html=1;rounded=0;exitX=1;exitY=0.5;exitDx=0;exitDy=0;" edge="1" parent="1" source="BPoGgEgJMjrMGvOBhOIr-16" target="BPoGgEgJMjrMGvOBhOIr-2">
          <mxGeometry width="50" height="50" relative="1" as="geometry">
            <mxPoint x="1100" y="884" as="sourcePoint" />
            <mxPoint x="1260" y="825" as="targetPoint" />
          </mxGeometry>
        </mxCell>
        <mxCell id="BPoGgEgJMjrMGvOBhOIr-15" value="" style="endArrow=none;html=1;rounded=0;exitX=1;exitY=0.5;exitDx=0;exitDy=0;" edge="1" parent="1" source="BPoGgEgJMjrMGvOBhOIr-6" target="BPoGgEgJMjrMGvOBhOIr-16">
          <mxGeometry width="50" height="50" relative="1" as="geometry">
            <mxPoint x="1140" y="730" as="sourcePoint" />
            <mxPoint x="1290" y="744" as="targetPoint" />
          </mxGeometry>
        </mxCell>
        <mxCell id="BPoGgEgJMjrMGvOBhOIr-16" value="include" style="text;html=1;align=center;verticalAlign=middle;resizable=0;points=[];autosize=1;strokeColor=none;fillColor=none;" vertex="1" parent="1">
          <mxGeometry x="1130" y="745" width="60" height="30" as="geometry" />
        </mxCell>
        <mxCell id="BPoGgEgJMjrMGvOBhOIr-17" value="" style="endArrow=none;html=1;rounded=0;exitX=1;exitY=0.5;exitDx=0;exitDy=0;" edge="1" parent="1" source="BPoGgEgJMjrMGvOBhOIr-7" target="BPoGgEgJMjrMGvOBhOIr-18">
          <mxGeometry width="50" height="50" relative="1" as="geometry">
            <mxPoint x="1130" y="810" as="sourcePoint" />
            <mxPoint x="1290" y="751" as="targetPoint" />
          </mxGeometry>
        </mxCell>
        <mxCell id="BPoGgEgJMjrMGvOBhOIr-18" value="include" style="text;html=1;align=center;verticalAlign=middle;resizable=0;points=[];autosize=1;strokeColor=none;fillColor=none;" vertex="1" parent="1">
          <mxGeometry x="1140" y="795" width="60" height="30" as="geometry" />
        </mxCell>
        <mxCell id="BPoGgEgJMjrMGvOBhOIr-19" value="aprovo vacaciones" style="ellipse;whiteSpace=wrap;html=1;" vertex="1" parent="1">
          <mxGeometry x="930" y="535" width="70" height="50" as="geometry" />
        </mxCell>
        <mxCell id="BPoGgEgJMjrMGvOBhOIr-20" value="" style="endArrow=none;html=1;rounded=0;exitX=0.983;exitY=0.608;exitDx=0;exitDy=0;exitPerimeter=0;entryX=0;entryY=0.5;entryDx=0;entryDy=0;" edge="1" parent="1" source="BPoGgEgJMjrMGvOBhOIr-25" target="BPoGgEgJMjrMGvOBhOIr-19">
          <mxGeometry width="50" height="50" relative="1" as="geometry">
            <mxPoint x="750" y="765" as="sourcePoint" />
            <mxPoint x="800" y="715" as="targetPoint" />
          </mxGeometry>
        </mxCell>
        <mxCell id="BPoGgEgJMjrMGvOBhOIr-24" value="" style="endArrow=none;html=1;rounded=0;exitX=0.983;exitY=0.608;exitDx=0;exitDy=0;exitPerimeter=0;entryX=0;entryY=0.5;entryDx=0;entryDy=0;" edge="1" parent="1" source="BPoGgEgJMjrMGvOBhOIr-11" target="BPoGgEgJMjrMGvOBhOIr-25">
          <mxGeometry width="50" height="50" relative="1" as="geometry">
            <mxPoint x="649" y="675" as="sourcePoint" />
            <mxPoint x="831" y="690" as="targetPoint" />
          </mxGeometry>
        </mxCell>
        <mxCell id="BPoGgEgJMjrMGvOBhOIr-25" value="extend" style="text;html=1;align=center;verticalAlign=middle;resizable=0;points=[];autosize=1;strokeColor=none;fillColor=none;" vertex="1" parent="1">
          <mxGeometry x="800" y="545" width="60" height="30" as="geometry" />
        </mxCell>
        <mxCell id="BPoGgEgJMjrMGvOBhOIr-30" value="" style="endArrow=none;html=1;rounded=0;entryX=0;entryY=0.5;entryDx=0;entryDy=0;" edge="1" parent="1" source="BPoGgEgJMjrMGvOBhOIr-50" target="BPoGgEgJMjrMGvOBhOIr-10">
          <mxGeometry width="50" height="50" relative="1" as="geometry">
            <mxPoint x="880" y="755" as="sourcePoint" />
            <mxPoint x="930" y="705" as="targetPoint" />
          </mxGeometry>
        </mxCell>
        <mxCell id="BPoGgEgJMjrMGvOBhOIr-32" value="" style="endArrow=none;html=1;rounded=0;entryX=0;entryY=0.5;entryDx=0;entryDy=0;" edge="1" parent="1" source="BPoGgEgJMjrMGvOBhOIr-42" target="BPoGgEgJMjrMGvOBhOIr-11">
          <mxGeometry width="50" height="50" relative="1" as="geometry">
            <mxPoint x="620" y="765" as="sourcePoint" />
            <mxPoint x="830" y="769" as="targetPoint" />
          </mxGeometry>
        </mxCell>
        <mxCell id="BPoGgEgJMjrMGvOBhOIr-39" value="" style="endArrow=none;html=1;rounded=0;entryX=0;entryY=0.5;entryDx=0;entryDy=0;" edge="1" parent="1" source="BPoGgEgJMjrMGvOBhOIr-46" target="BPoGgEgJMjrMGvOBhOIr-12">
          <mxGeometry width="50" height="50" relative="1" as="geometry">
            <mxPoint x="880" y="805" as="sourcePoint" />
            <mxPoint x="930" y="755" as="targetPoint" />
          </mxGeometry>
        </mxCell>
        <mxCell id="BPoGgEgJMjrMGvOBhOIr-41" value="" style="endArrow=none;html=1;rounded=0;entryX=0;entryY=0.5;entryDx=0;entryDy=0;" edge="1" parent="1" source="BPoGgEgJMjrMGvOBhOIr-3" target="BPoGgEgJMjrMGvOBhOIr-42">
          <mxGeometry width="50" height="50" relative="1" as="geometry">
            <mxPoint x="430" y="590" as="sourcePoint" />
            <mxPoint x="670" y="510" as="targetPoint" />
          </mxGeometry>
        </mxCell>
        <mxCell id="BPoGgEgJMjrMGvOBhOIr-42" value="include" style="text;html=1;align=center;verticalAlign=middle;resizable=0;points=[];autosize=1;strokeColor=none;fillColor=none;" vertex="1" parent="1">
          <mxGeometry x="570" y="580" width="60" height="30" as="geometry" />
        </mxCell>
        <mxCell id="BPoGgEgJMjrMGvOBhOIr-45" value="" style="endArrow=none;html=1;rounded=0;entryX=0;entryY=0.5;entryDx=0;entryDy=0;" edge="1" parent="1" source="BPoGgEgJMjrMGvOBhOIr-5" target="BPoGgEgJMjrMGvOBhOIr-46">
          <mxGeometry width="50" height="50" relative="1" as="geometry">
            <mxPoint x="400" y="854" as="sourcePoint" />
            <mxPoint x="680" y="835" as="targetPoint" />
          </mxGeometry>
        </mxCell>
        <mxCell id="BPoGgEgJMjrMGvOBhOIr-46" value="include" style="text;html=1;align=center;verticalAlign=middle;resizable=0;points=[];autosize=1;strokeColor=none;fillColor=none;" vertex="1" parent="1">
          <mxGeometry x="580" y="840" width="60" height="30" as="geometry" />
        </mxCell>
        <mxCell id="BPoGgEgJMjrMGvOBhOIr-49" value="" style="endArrow=none;html=1;rounded=0;entryX=0;entryY=0.5;entryDx=0;entryDy=0;" edge="1" parent="1" source="BPoGgEgJMjrMGvOBhOIr-3" target="BPoGgEgJMjrMGvOBhOIr-50">
          <mxGeometry width="50" height="50" relative="1" as="geometry">
            <mxPoint x="430" y="599" as="sourcePoint" />
            <mxPoint x="720" y="680" as="targetPoint" />
          </mxGeometry>
        </mxCell>
        <mxCell id="BPoGgEgJMjrMGvOBhOIr-50" value="include" style="text;html=1;align=center;verticalAlign=middle;resizable=0;points=[];autosize=1;strokeColor=none;fillColor=none;" vertex="1" parent="1">
          <mxGeometry x="560" y="495" width="60" height="30" as="geometry" />
        </mxCell>
        <mxCell id="BPoGgEgJMjrMGvOBhOIr-56" value="" style="endArrow=none;html=1;rounded=0;exitX=1;exitY=0.5;exitDx=0;exitDy=0;" edge="1" parent="1" source="BPoGgEgJMjrMGvOBhOIr-57" target="BPoGgEgJMjrMGvOBhOIr-2">
          <mxGeometry width="50" height="50" relative="1" as="geometry">
            <mxPoint x="1000" y="770" as="sourcePoint" />
            <mxPoint x="1050" y="720" as="targetPoint" />
          </mxGeometry>
        </mxCell>
        <mxCell id="BPoGgEgJMjrMGvOBhOIr-58" value="" style="endArrow=none;html=1;rounded=0;exitX=1;exitY=0.5;exitDx=0;exitDy=0;" edge="1" parent="1" source="BPoGgEgJMjrMGvOBhOIr-9" target="BPoGgEgJMjrMGvOBhOIr-57">
          <mxGeometry width="50" height="50" relative="1" as="geometry">
            <mxPoint x="1070" y="715" as="sourcePoint" />
            <mxPoint x="1290" y="743" as="targetPoint" />
          </mxGeometry>
        </mxCell>
        <mxCell id="BPoGgEgJMjrMGvOBhOIr-57" value="include" style="text;html=1;align=center;verticalAlign=middle;resizable=0;points=[];autosize=1;strokeColor=none;fillColor=none;" vertex="1" parent="1">
          <mxGeometry x="1130" y="700" width="60" height="30" as="geometry" />
        </mxCell>
        <mxCell id="BPoGgEgJMjrMGvOBhOIr-60" value="" style="endArrow=none;html=1;rounded=0;exitX=1;exitY=0.5;exitDx=0;exitDy=0;" edge="1" parent="1" source="BPoGgEgJMjrMGvOBhOIr-19" target="BPoGgEgJMjrMGvOBhOIr-61">
          <mxGeometry width="50" height="50" relative="1" as="geometry">
            <mxPoint x="1090" y="925" as="sourcePoint" />
            <mxPoint x="1290" y="821" as="targetPoint" />
          </mxGeometry>
        </mxCell>
        <mxCell id="BPoGgEgJMjrMGvOBhOIr-61" value="include" style="text;html=1;align=center;verticalAlign=middle;resizable=0;points=[];autosize=1;strokeColor=none;fillColor=none;" vertex="1" parent="1">
          <mxGeometry x="1080" y="570" width="60" height="30" as="geometry" />
        </mxCell>
        <mxCell id="BPoGgEgJMjrMGvOBhOIr-62" value="" style="endArrow=none;html=1;rounded=0;exitX=0.933;exitY=0.267;exitDx=0;exitDy=0;exitPerimeter=0;entryX=0.25;entryY=0.1;entryDx=0;entryDy=0;entryPerimeter=0;" edge="1" parent="1" source="BPoGgEgJMjrMGvOBhOIr-61" target="BPoGgEgJMjrMGvOBhOIr-2">
          <mxGeometry width="50" height="50" relative="1" as="geometry">
            <mxPoint x="980" y="790" as="sourcePoint" />
            <mxPoint x="1030" y="740" as="targetPoint" />
          </mxGeometry>
        </mxCell>
        <mxCell id="BPoGgEgJMjrMGvOBhOIr-63" value="" style="endArrow=none;html=1;rounded=0;entryX=0.943;entryY=0.72;entryDx=0;entryDy=0;entryPerimeter=0;exitX=0;exitY=0.5;exitDx=0;exitDy=0;" edge="1" parent="1" source="BPoGgEgJMjrMGvOBhOIr-64" target="BPoGgEgJMjrMGvOBhOIr-11">
          <mxGeometry width="50" height="50" relative="1" as="geometry">
            <mxPoint x="840" y="740" as="sourcePoint" />
            <mxPoint x="890" y="690" as="targetPoint" />
          </mxGeometry>
        </mxCell>
        <mxCell id="BPoGgEgJMjrMGvOBhOIr-65" value="" style="endArrow=none;html=1;rounded=0;entryX=0.943;entryY=0.72;entryDx=0;entryDy=0;entryPerimeter=0;exitX=0;exitY=0.5;exitDx=0;exitDy=0;" edge="1" parent="1" source="BPoGgEgJMjrMGvOBhOIr-9" target="BPoGgEgJMjrMGvOBhOIr-64">
          <mxGeometry width="50" height="50" relative="1" as="geometry">
            <mxPoint x="1020" y="690" as="sourcePoint" />
            <mxPoint x="746" y="606" as="targetPoint" />
          </mxGeometry>
        </mxCell>
        <mxCell id="BPoGgEgJMjrMGvOBhOIr-64" value="include" style="text;html=1;align=center;verticalAlign=middle;resizable=0;points=[];autosize=1;strokeColor=none;fillColor=none;" vertex="1" parent="1">
          <mxGeometry x="855" y="635" width="60" height="30" as="geometry" />
        </mxCell>
      </root>
    </mxGraphModel>
  </diagram>
</mxfile>
